<?xml version="1.0" encoding="UTF-8"?>
<svg id="Layer_2" data-name="Layer 2" xmlns="http://www.w3.org/2000/svg" viewBox="0 0 91.31 195.73">
  <defs>
    <style>
      .cls-1 {
        fill: #94b5c3;
        stroke-width: 0px;
      }
    </style>
  </defs>
  <g id="Layer_1-2" data-name="Layer 1">
    <path class="cls-1" d="m14.38,0c31.69,2,60.41,25.5,71.52,55.31,16.19,42.96-5.53,89.85-43.75,112.57-8.57,5.08-17.75,9.23-27.53,11.37,0,0-1.89-2.07-1.89-2.07,12.52-12.33,24.42-25.5,33.7-40.42,26.51-41.56,21.51-82.88-13.31-117.6C26.98,12.95,20.16,7.26,12.96,2.42c0,0,1.41-2.42,1.41-2.42h0Z"/>
    <path class="cls-1" d="m81.78,186.1c-14.63,8.33-31.85,11.01-48.12,8.99-8.53-.8-19.98-4.94-28.21-7.38-3.34-14.02-6.98-28.6-4.76-43.44,1.46-11.19,5.11-22.63,11.63-32.43,0,0,2.73-.63,2.73-.63,1.4,4.63,2.63,9.3,3.94,13.95,3.51,13.03,7.4,29.02,10.53,42.14,0,0-1.91-2.04-1.91-2.04,8.13,2.58,19.63,6.07,27.61,8.73,8.05,2.66,19.54,6.51,27.39,9.45,0,0-.81,2.68-.81,2.68h0Z"/>
  </g>
</svg>