<?xml version="1.0" encoding="UTF-8"?>
<svg id="Calque_2" data-name="Calque 2" xmlns="http://www.w3.org/2000/svg" viewBox="0 0 174.52 417.46">
  <defs>
    <style>
      .cls-1 {
        fill: none;
        stroke: #fff;
        stroke-miterlimit: 10;
        stroke-width: 5px;
      }

      .cls-2 {
        fill: #8da75d;
      }
    </style>
  </defs>
  <g id="Layer_1" data-name="Layer 1">
    <path class="cls-2" d="m65.01,4.02c-21.86,10.44-36.19,42.51-30.65,66.72,4.37,19.08,19.12,24.71,20.74,45.98,1.13,14.97-5.14,25.81-10.82,36.96C26.31,188.99,1.4,237.92,10.01,279.9c4.67,22.76,14.83,22.23,20.74,53.19,5.66,29.7-2.21,37.9,5.41,52.29,14.03,26.47,64.95,44.46,94.66,21.64,18.61-14.3,25.48-41.98,19.83-64.01-10.07-39.32-54.93-40.97-56.8-70.32-1.61-25.27,31.26-30.35,45.08-76.63,5.99-20.05.32-20.78,6.31-52.29,8.98-47.24,23.16-53.23,20.74-73.93C161.37,30.33,102.03-13.66,65.01,4.02Z"/>
    <path class="cls-1" d="m156.67,168.63C116.83,81.81,141.44,24.71,112.49,11.75c-21.47-9.61-60.09,10.56-73.93,38.77-20.56,41.91,26.24,75.8,8.11,129.82C33.41,219.88,2.33,219.65,2.5,249.77c.2,36.6,46.19,49.88,45.98,94.66-.1,21.03-10.28,27.48-4.51,39.67,12.39,26.17,76.72,33.17,93.76,9.92,15.45-21.07-22.47-47.18-11.72-92.86,9.39-39.91,44.95-48.13,45.98-86.55.46-17.18-6.36-26.43-15.33-45.98Z"/>
  </g>
</svg>