<?xml version="1.0" encoding="UTF-8"?>
<svg id="Calque_2" data-name="Calque 2" xmlns="http://www.w3.org/2000/svg" viewBox="0 0 174.52 417.46">
  <defs>
    <style>
      .cls-1 {
        fill: none;
        stroke: #fff;
        stroke-miterlimit: 10;
        stroke-width: 5px;
      }

      .cls-2 {
        fill: #94b5c3;
      }
    </style>
  </defs>
  <g id="Layer_1" data-name="Layer 1">
    <path class="cls-2" d="m109.51,413.43c21.86-10.44,36.19-42.51,30.65-66.72-4.37-19.08-19.12-24.71-20.74-45.98-1.13-14.97,5.14-25.81,10.82-36.96,17.97-35.3,42.87-84.24,34.26-126.22-4.67-22.76-14.83-22.23-20.74-53.19-5.66-29.7,2.21-37.9-5.41-52.29C124.33,5.6,73.4-12.39,43.69,10.43c-18.61,14.3-25.48,41.98-19.83,64.01,10.07,39.32,54.93,40.97,56.8,70.32,1.61,25.27-31.26,30.35-45.08,76.63-5.99,20.05-.32,20.78-6.31,52.29-8.98,47.24-23.16,53.23-20.74,73.93,4.62,39.51,63.96,83.5,100.97,65.81Z"/>
    <path class="cls-1" d="m17.85,248.83c39.83,86.82,15.23,143.91,44.18,156.87,21.47,9.61,60.09-10.56,73.93-38.77,20.56-41.91-26.24-75.8-8.11-129.82,13.27-39.54,44.34-39.31,44.18-69.42-.2-36.6-46.19-49.88-45.98-94.66.1-21.03,10.28-27.48,4.51-39.67C118.15,7.19,53.83.19,36.78,23.44c-15.45,21.07,22.47,47.18,11.72,92.86C39.11,156.21,3.55,164.43,2.52,202.85c-.46,17.18,6.36,26.43,15.33,45.98Z"/>
  </g>
</svg>