<?xml version="1.0" encoding="UTF-8"?>
<svg id="Calque_2" data-name="Calque 2" xmlns="http://www.w3.org/2000/svg" viewBox="0 0 595.28 165.67">
  <defs>
    <style>
      .cls-1 {
        fill: #fff;
      }

      .cls-2 {
        fill: #8da75e;
      }

      .cls-3 {
        fill: #93b4c3;
      }
    </style>
  </defs>
  <g id="Calque_1-2" data-name="Calque 1">
    <path class="cls-3" d="m541.51,0c-.43.68-14.23,22.14-54.4,39.61-40.82,17.75-84.01-4.14-133.11-11.24-49.1-7.1-97.61,23.07-114.77,44.96-17.16,21.89-56.2,50.29-149.67,50.88-36.71.23-66.68-6.93-89.55-15.71v10.43s49.83,47.33,143.3,46.74c93.47-.59,132.52-28.99,149.67-50.88s65.67-52.06,114.77-44.96c49.1,7.1,92.29,28.99,133.11,11.24,40.82-17.75,54.43-39.64,54.43-39.64V0h-53.77Z"/>
    <path class="cls-1" d="m0,0v108.19c23.02,8.99,53.39,16.4,90.74,16.17,93.47-.59,132.52-28.99,149.67-50.88,17.16-21.89,65.67-52.06,114.77-44.96,49.1,7.1,92.29,28.99,133.11,11.24C529.11,22.01,542.71.12,542.71.12v-.12H0Z"/>
    <path class="cls-2" d="m0,0v71.19c46.96-9.72,70.58-28.8,82.9-44.52,6.69-8.53,18.15-18.31,32.54-26.67H0Z"/>
  </g>
</svg>