<?xml version="1.0" encoding="UTF-8"?>
<svg id="Calque_2" data-name="Calque 2" xmlns="http://www.w3.org/2000/svg" viewBox="0 0 596.79 235.84">
  <defs>
    <style>
      .cls-1 {
        fill: #8da75e;
      }

      .cls-2 {
        fill: #dc8dbb;
      }
    </style>
  </defs>
  <g id="Calque_1-2" data-name="Calque 1">
    <path class="cls-1" d="m453.12.73c-93.71.59-132.85,29.06-150.05,51.01s-65.83,52.19-115.06,45.08-92.52-29.06-133.45-11.27C19.33,100.86,4.33,119.25.84,124.07h-.25v.35c-.39.56-.59.87-.59.87v65.24h.59v28.2c46.76,7.9,88.19,27.39,127.44,10.32,18.67-8.12,31.65-17.09,40.25-24.46,1.49-2.1,5.69-7.49,13.58-14.26,8.61-7.38,21.61-16.39,40.34-24.53,40.92-17.79,84.22,4.15,133.45,11.27s97.86-23.13,115.06-45.08c15.65-19.97,49.49-45.34,126.07-50.19v-34.21S546.83.14,453.12.73Z"/>
    <g>
      <path class="cls-2" d="m596.79,46.98v-.12s-.01-.01-.02-.02l.02.14Z"/>
      <path class="cls-2" d="m.59,217.79c.05-.11.11-.23.19-.38l-.05-.35.25-.04c2.81-5.45,15.25-26.53,48.8-47.61,38.96-24.49,86.51-8.84,137.81-9.22,51.3-.38,96.19-38.77,110.32-63.81,14.13-25.04,49.62-60.14,145.08-75.29,88.25-14,144.73,19.66,152.75,24.82C588.11,39.25,538.99-.54,453.12,0c-93.71.59-132.85,29.06-150.05,51.01s-65.83,52.19-115.06,45.08-92.52-29.06-133.45-11.27C19.33,100.14,4.33,118.52.84,123.34h-.25v.35c-.39.56-.59.87-.59.87v65.24h.59v27.99Z"/>
    </g>
  </g>
</svg>